<?xml version="1.0" standalone="no"?>
<!DOCTYPE svg PUBLIC "-//W3C//DTD SVG 20010904//EN"
 "http://www.w3.org/TR/2001/REC-SVG-20010904/DTD/svg10.dtd">
<svg version="1.0" xmlns="http://www.w3.org/2000/svg"
 width="150.000000pt" height="150.000000pt" viewBox="0 0 150.000000 150.000000"
 preserveAspectRatio="xMidYMid meet">

<g transform="translate(0.000000,150.000000) scale(0.100000,-0.100000)"
fill="#000000" stroke="none">
<path d="M315 1238 c-3 -7 -4 -222 -3 -478 l3 -465 33 -3 c24 -2 32 -8 32 -23
0 -17 8 -19 84 -19 75 0 84 2 89 20 5 19 14 20 201 20 189 0 196 -1 196 -20 0
-18 7 -20 85 -20 77 0 85 2 85 19 0 15 8 21 33 23 l32 3 0 475 0 475 -433 3
c-341 2 -434 0 -437 -10z m655 -158 c0 -25 -4 -30 -24 -30 -13 0 -26 7 -30 15
-9 25 4 45 30 45 20 0 24 -5 24 -30z m90 5 c0 -20 -5 -25 -25 -25 -20 0 -25 5
-25 25 0 20 5 25 25 25 20 0 25 -5 25 -25z m-502 -221 c26 -17 52 -70 52 -105
0 -38 -31 -87 -65 -103 -41 -20 -165 -22 -165 -3 -1 28 -1 223 -1 230 1 13
155 -3 179 -19z m273 0 c22 -20 25 -53 5 -79 -12 -17 -12 -21 6 -33 14 -10 18
-23 16 -50 -4 -49 -32 -62 -130 -62 l-78 0 0 125 0 125 81 -4 c58 -3 85 -9
100 -22z m113 20 c11 -4 16 -19 16 -50 l0 -44 49 0 50 0 3 48 c3 43 5 47 31
50 l27 3 0 -125 0 -126 -30 0 c-29 0 -30 1 -30 51 l0 50 -47 -3 -48 -3 -3 -47
c-3 -46 -5 -48 -33 -48 l-29 0 0 119 c0 86 3 121 13 124 6 3 13 6 14 6 1 1 8
-2 17 -5z m26 -424 c0 -25 -4 -30 -24 -30 -17 0 -25 7 -28 25 -6 30 -2 35 29
35 19 0 23 -5 23 -30z m88 3 c-2 -20 -9 -29 -25 -31 -20 -3 -23 1 -23 27 0 27
4 31 26 31 22 0 25 -4 22 -27z"/>
<path d="M440 766 l0 -76 34 0 c46 0 80 41 72 85 -8 40 -25 54 -69 62 l-37 6
0 -77z"/>
<path d="M710 810 c0 -26 3 -30 29 -30 32 0 56 22 47 45 -3 9 -18 15 -41 15
-32 0 -35 -2 -35 -30z"/>
<path d="M712 713 c3 -24 8 -28 35 -30 35 -1 59 18 49 42 -3 10 -19 15 -46 15
-39 0 -41 -1 -38 -27z"/>
</g>
</svg>
