<svg width="26" height="30" viewBox="0 0 26 30" fill="none" xmlns="http://www.w3.org/2000/svg">
<path fill-rule="evenodd" clip-rule="evenodd" d="M25.504 7.13601L13.504 0.136006C13.351 0.0467454 13.1771 -0.000289917 13 -0.000289917C12.8229 -0.000289917 12.649 0.0467454 12.496 0.136006L0.496 7.13601C0.345022 7.22411 0.219776 7.35024 0.132747 7.50184C0.0457184 7.65344 -5.17539e-05 7.8252 4.39159e-08 8.00001V22C-5.17539e-05 22.1748 0.0457184 22.3466 0.132747 22.4982C0.219776 22.6498 0.345022 22.7759 0.496 22.864L12.496 29.864C12.649 29.9533 12.8229 30.0003 13 30.0003C13.1771 30.0003 13.351 29.9533 13.504 29.864L25.504 22.864C25.655 22.7759 25.7802 22.6498 25.8673 22.4982C25.9543 22.3466 26.0001 22.1748 26 22V8.00001C26.0001 7.8252 25.9543 7.65344 25.8673 7.50184C25.7802 7.35024 25.655 7.22411 25.504 7.13601ZM2 18.176V19.568H5.456C6.584 19.568 7.44 19.284 8.024 18.716C8.616 18.14 8.912 17.288 8.912 16.16V14.576C8.912 13.448 8.616 12.6 8.024 12.032C7.44 11.456 6.584 11.168 5.456 11.168H2V12.56H3.104V18.176H2ZM9.72266 18.176V19.568H14.0907C14.5947 19.568 15.0347 19.48 15.4107 19.304C15.7947 19.128 16.0947 18.876 16.3107 18.548C16.5267 18.212 16.6347 17.812 16.6347 17.348V17.228C16.6347 16.828 16.5587 16.504 16.4067 16.256C16.2627 16.008 16.0867 15.82 15.8787 15.692C15.6707 15.556 15.4787 15.464 15.3027 15.416V15.2C15.4787 15.144 15.6627 15.052 15.8547 14.924C16.0547 14.788 16.2267 14.6 16.3707 14.36C16.5147 14.112 16.5867 13.796 16.5867 13.412V13.292C16.5867 12.852 16.4787 12.476 16.2627 12.164C16.0547 11.844 15.7587 11.6 15.3747 11.432C14.9987 11.256 14.5547 11.168 14.0427 11.168H9.72266V12.56H10.8267V18.176H9.72266ZM19.1314 19.388C19.6274 19.62 20.1994 19.736 20.8474 19.736C21.4954 19.736 22.0554 19.628 22.5274 19.412C23.0074 19.188 23.3754 18.884 23.6314 18.5C23.8954 18.108 24.0274 17.656 24.0274 17.144C24.0274 16.632 23.9034 16.212 23.6554 15.884C23.4074 15.556 23.0594 15.292 22.6114 15.092C22.1714 14.892 21.6514 14.728 21.0514 14.6L20.7754 14.54C20.4394 14.468 20.1634 14.384 19.9474 14.288C19.7314 14.192 19.5674 14.072 19.4554 13.928C19.3514 13.784 19.2994 13.608 19.2994 13.4C19.2994 13.088 19.4114 12.844 19.6354 12.668C19.8674 12.484 20.2234 12.392 20.7034 12.392C21.0234 12.392 21.2994 12.44 21.5314 12.536C21.7634 12.624 21.9394 12.768 22.0594 12.968C22.1874 13.16 22.2514 13.416 22.2514 13.736V14.096H23.8114V13.736C23.8114 13.128 23.6754 12.624 23.4034 12.224C23.1394 11.816 22.7714 11.512 22.2994 11.312C21.8354 11.104 21.3034 11 20.7034 11C20.1034 11 19.5794 11.1 19.1314 11.3C18.6914 11.492 18.3474 11.772 18.0994 12.14C17.8594 12.5 17.7394 12.936 17.7394 13.448C17.7394 13.96 17.8474 14.376 18.0634 14.696C18.2874 15.016 18.6034 15.276 19.0114 15.476C19.4274 15.668 19.9234 15.828 20.4994 15.956L20.7754 16.016C21.1354 16.096 21.4394 16.184 21.6874 16.28C21.9434 16.368 22.1354 16.484 22.2634 16.628C22.3994 16.772 22.4674 16.96 22.4674 17.192C22.4674 17.528 22.3314 17.804 22.0594 18.02C21.7954 18.236 21.3914 18.344 20.8474 18.344C20.3114 18.344 19.8874 18.22 19.5754 17.972C19.2634 17.716 19.1074 17.336 19.1074 16.832V16.496H17.5474V16.832C17.5474 17.44 17.6874 17.96 17.9674 18.392C18.2474 18.824 18.6354 19.156 19.1314 19.388Z" fill="white"/>
<path d="M4.688 18.128H5.48C6.12 18.128 6.588 17.96 6.884 17.624C7.18 17.288 7.328 16.816 7.328 16.208V14.528C7.328 13.912 7.18 13.44 6.884 13.112C6.588 12.776 6.12 12.608 5.48 12.608H4.688V18.128Z" fill="white"/>
<path d="M12.4107 18.128H13.8987C14.2427 18.128 14.5187 18.044 14.7267 17.876C14.9427 17.708 15.0507 17.468 15.0507 17.156V17.036C15.0507 16.724 14.9467 16.484 14.7387 16.316C14.5307 16.148 14.2507 16.064 13.8987 16.064H12.4107V18.128Z" fill="white"/>
<path d="M12.4107 14.624H13.8747C14.2027 14.624 14.4707 14.54 14.6787 14.372C14.8947 14.204 15.0027 13.972 15.0027 13.676V13.556C15.0027 13.252 14.8987 13.02 14.6907 12.86C14.4827 12.692 14.2107 12.608 13.8747 12.608H12.4107V14.624Z" fill="white"/>
</svg>
