<?xml version="1.0" standalone="no"?>
<!DOCTYPE svg PUBLIC "-//W3C//DTD SVG 20010904//EN"
 "http://www.w3.org/TR/2001/REC-SVG-20010904/DTD/svg10.dtd">
<svg version="1.0" xmlns="http://www.w3.org/2000/svg"
 width="960.000000pt" height="960.000000pt" viewBox="0 0 960.000000 960.000000"
 preserveAspectRatio="xMidYMid meet">
<metadata>
Created by potrace 1.14, written by Peter Selinger 2001-2017
</metadata>
<g transform="translate(0.000000,960.000000) scale(0.100000,-0.100000)"
fill="#000000" stroke="none">
<path d="M4692 9580 c-29 -10 -64 -28 -79 -39 -14 -12 -29 -21 -34 -21 -4 0
-44 -22 -89 -50 -45 -27 -85 -50 -90 -50 -5 0 -10 -3 -12 -7 -3 -8 -30 -24
-113 -67 -22 -12 -42 -24 -45 -27 -3 -3 -43 -28 -89 -54 -47 -26 -129 -74
-183 -106 -54 -33 -103 -59 -108 -59 -6 0 -10 -3 -10 -7 0 -5 -10 -13 -23 -19
-32 -16 -98 -53 -132 -75 -16 -10 -41 -24 -55 -31 -14 -7 -27 -15 -30 -18 -3
-3 -25 -16 -50 -29 -25 -14 -63 -36 -85 -50 -22 -14 -42 -26 -45 -26 -3 0 -59
-32 -125 -72 -66 -39 -165 -97 -220 -129 -55 -32 -113 -67 -130 -77 -16 -9
-38 -20 -47 -23 -10 -4 -18 -10 -18 -15 0 -5 -5 -9 -11 -9 -6 0 -56 -27 -111
-60 -54 -33 -101 -60 -104 -60 -3 0 -21 -12 -40 -26 -19 -15 -34 -23 -34 -19
0 5 -8 2 -17 -6 -10 -8 -29 -20 -43 -28 -14 -8 -95 -56 -181 -106 -86 -50
-162 -95 -170 -98 -8 -4 -27 -16 -44 -26 -16 -10 -75 -44 -130 -76 -55 -32
-108 -65 -119 -74 -10 -9 -20 -15 -22 -13 -2 1 -14 -4 -27 -12 -20 -12 -216
-127 -312 -182 -63 -37 -134 -78 -163 -94 -15 -8 -45 -26 -67 -40 -22 -14 -43
-24 -47 -22 -5 1 -8 -3 -8 -8 0 -6 -7 -10 -15 -10 -8 0 -15 -4 -15 -10 0 -5
-4 -10 -9 -10 -12 0 -155 -83 -159 -92 -2 -5 -9 -8 -16 -8 -6 0 -35 -15 -64
-34 -28 -19 -52 -32 -52 -29 0 3 -7 -1 -16 -8 -17 -14 -47 -32 -79 -48 -40
-20 -103 -87 -131 -141 l-29 -55 0 -2325 0 -2325 24 -49 c30 -61 82 -114 147
-151 27 -16 56 -34 64 -41 8 -7 17 -12 20 -11 3 0 16 -6 30 -15 14 -9 57 -34
95 -57 39 -22 76 -45 82 -51 7 -6 13 -8 13 -4 0 3 7 1 15 -6 21 -17 76 -49 98
-56 9 -4 17 -10 17 -15 0 -5 4 -9 10 -9 5 0 33 -14 62 -31 29 -18 67 -40 83
-49 17 -10 59 -35 95 -56 36 -21 82 -48 102 -59 20 -11 74 -42 120 -69 46 -27
135 -79 198 -116 207 -122 414 -242 460 -268 25 -13 52 -30 60 -37 8 -6 22
-15 30 -19 22 -9 87 -47 375 -216 109 -64 369 -216 480 -280 17 -10 86 -50
155 -90 69 -40 139 -81 155 -90 17 -9 60 -36 98 -58 37 -23 70 -42 72 -42 3 0
24 -12 48 -27 23 -15 56 -35 72 -44 17 -9 46 -26 65 -37 19 -12 53 -32 75 -44
22 -12 48 -27 57 -33 21 -13 110 -64 173 -100 28 -15 57 -34 66 -41 8 -8 19
-14 23 -14 5 0 53 -27 108 -60 54 -33 103 -60 108 -60 6 0 10 -4 10 -9 0 -8
23 -19 90 -44 57 -20 139 -19 205 3 36 12 67 25 70 30 3 5 18 15 33 23 15 7
72 40 127 72 55 32 110 63 122 69 13 6 23 14 23 19 0 4 4 7 10 7 5 0 73 38
152 84 79 46 159 92 178 103 19 11 97 57 173 102 76 44 154 90 175 101 20 11
55 32 77 45 22 14 56 33 75 43 19 9 37 20 40 23 6 6 107 67 210 124 25 14 52
30 60 35 15 10 145 86 205 120 34 19 128 75 183 107 20 13 46 27 57 33 11 6
29 16 40 23 11 7 63 36 115 66 52 30 97 58 98 63 2 4 12 8 23 8 10 0 19 4 19
9 0 5 21 19 48 31 26 12 49 26 52 29 3 4 19 14 35 23 27 13 267 153 356 208
19 11 46 25 62 31 15 6 27 15 27 20 0 5 4 9 9 9 12 0 325 183 329 192 2 5 12
8 22 8 10 0 20 4 22 8 2 5 49 35 106 66 56 32 105 62 108 67 3 5 10 7 15 4 5
-4 9 -1 9 4 0 6 7 11 15 11 8 0 15 3 15 8 0 4 20 16 45 27 25 11 45 22 45 26
0 3 18 14 40 24 22 10 40 22 40 27 0 4 5 8 11 8 10 0 123 63 179 100 8 6 24
14 35 19 39 19 103 87 131 141 l29 55 0 2325 0 2325 -24 47 c-43 89 -90 126
-316 252 -11 6 -39 24 -62 39 -24 15 -45 27 -47 27 -2 0 -51 28 -108 61 -56
34 -118 70 -135 80 -72 41 -101 58 -163 95 -36 21 -77 45 -93 54 -15 8 -107
62 -205 119 -162 95 -246 144 -327 191 -16 9 -55 32 -85 50 -52 31 -69 41
-157 91 -21 12 -51 30 -68 40 -16 10 -48 29 -70 41 -22 12 -48 27 -57 33 -86
51 -191 113 -228 133 -25 14 -49 28 -55 32 -8 6 -67 41 -240 140 -16 10 -109
64 -205 120 -174 102 -209 122 -274 159 -73 41 -81 46 -94 58 -7 7 -24 16 -38
19 -13 3 -24 10 -24 15 0 5 -6 9 -14 9 -7 0 -19 7 -26 15 -7 8 -21 15 -31 15
-11 0 -19 4 -19 8 0 5 -15 16 -32 25 -18 10 -55 31 -83 47 -27 17 -57 33 -65
37 -8 3 -22 11 -30 18 -8 7 -35 23 -60 36 -25 13 -47 26 -50 29 -3 3 -16 11
-29 18 -106 60 -163 93 -196 113 -16 10 -49 29 -72 41 -24 12 -43 26 -43 30 0
4 -4 8 -9 8 -5 0 -49 23 -98 51 -48 28 -106 57 -128 63 -62 19 -144 17 -203
-4z m2568 -3500 c16 4 31 6 33 3 3 -3 38 -6 79 -9 83 -4 114 -8 177 -23 25 -5
49 -8 53 -5 4 3 8 0 8 -5 0 -6 8 -11 18 -11 43 -1 217 -77 295 -130 108 -73
234 -229 272 -338 10 -26 21 -56 25 -67 5 -11 12 -38 16 -60 4 -22 9 -47 11
-55 2 -8 6 -77 10 -152 l6 -138 -245 0 c-253 0 -280 4 -258 40 5 8 6 18 3 24
-9 14 -9 58 -1 84 4 12 4 22 0 22 -4 0 -8 15 -9 33 -3 44 -23 107 -45 139 -10
14 -18 29 -18 33 0 11 -76 85 -87 85 -5 0 -14 5 -21 12 -36 36 -222 75 -341
71 -175 -5 -301 -53 -368 -141 -88 -116 -70 -306 38 -394 39 -32 161 -100 174
-97 3 0 36 -9 73 -20 37 -12 79 -23 92 -26 14 -3 36 -7 50 -10 14 -3 34 -7 45
-9 11 -2 38 -9 60 -14 22 -6 51 -13 65 -16 14 -3 41 -10 60 -15 19 -5 51 -14
70 -19 19 -5 47 -15 63 -21 15 -6 27 -8 27 -5 0 4 6 2 13 -3 6 -6 30 -16 52
-23 22 -7 49 -17 60 -23 11 -6 26 -12 33 -13 7 -1 24 -9 37 -18 13 -9 31 -16
40 -16 8 0 15 -4 15 -10 0 -5 5 -10 10 -10 25 0 160 -103 215 -164 59 -66 125
-174 125 -206 0 -9 3 -20 7 -24 4 -3 8 -12 9 -19 1 -7 5 -30 10 -52 4 -22 8
-92 9 -155 2 -261 -105 -471 -323 -632 -59 -44 -227 -131 -227 -118 0 2 -17
-5 -38 -14 -139 -58 -437 -76 -677 -42 -8 2 -28 6 -45 9 -16 4 -39 9 -50 11
-83 18 -302 113 -335 146 -3 3 -23 18 -45 35 -173 128 -291 335 -321 565 -10
84 -11 240 -1 247 12 7 477 6 485 -1 3 -4 7 -50 8 -104 3 -111 15 -166 50
-237 50 -102 133 -168 269 -212 69 -22 100 -26 225 -28 80 -2 149 0 155 3 5 3
22 7 38 9 99 11 200 69 275 158 26 31 54 109 59 165 15 158 -74 262 -279 330
-34 12 -70 24 -78 27 -8 3 -19 7 -25 8 -5 0 -17 4 -25 7 -14 6 -166 42 -222
53 -59 11 -77 16 -188 49 -143 42 -257 87 -335 132 -83 47 -96 56 -120 79 -12
11 -37 34 -56 50 -32 29 -114 139 -119 160 -1 6 -7 21 -13 35 -15 37 -15 39
-32 120 -15 69 -21 223 -12 296 19 147 89 292 192 400 140 144 373 240 629
259 38 2 72 7 75 10 3 4 7 2 9 -4 2 -5 14 -6 32 -1z m-4660 -64 c25 -4 56 -9
70 -12 14 -3 39 -7 55 -10 17 -3 48 -10 70 -16 51 -15 47 -13 67 -22 9 -4 22
-9 30 -10 7 -1 40 -15 73 -30 197 -92 360 -261 433 -452 10 -27 22 -58 27 -69
22 -55 54 -213 60 -300 5 -72 5 -775 1 -825 -11 -103 -19 -157 -29 -175 -6
-11 -9 -22 -8 -25 3 -7 -20 -102 -28 -115 -3 -5 -6 -14 -7 -20 -4 -22 -57
-130 -89 -179 -47 -73 -125 -157 -198 -212 -68 -51 -191 -117 -201 -107 -3 4
-6 2 -6 -4 0 -8 -49 -28 -95 -39 -5 -1 -30 -7 -55 -14 -25 -6 -61 -13 -80 -16
-19 -2 -48 -6 -65 -9 -74 -13 -206 -16 -740 -16 -314 0 -578 0 -587 0 -9 1
-17 9 -17 19 -1 9 -1 24 -1 32 -1 8 1 34 2 58 2 23 0 42 -4 42 -4 0 -3 14 2
30 5 17 5 30 0 30 -5 0 -5 13 0 30 5 17 5 30 0 30 -5 0 -5 13 0 30 5 17 6 30
2 30 -4 0 -7 16 -7 35 0 19 3 35 6 35 3 0 5 10 5 22 -1 22 0 22 172 22 147 0
172 3 173 16 4 71 3 1764 -1 1771 -3 4 -83 9 -177 9 l-171 2 -4 29 c-3 17 -1
32 3 35 4 2 4 17 -1 33 -4 16 -5 32 -2 36 8 7 5 102 -3 115 -3 6 -2 10 4 10 6
0 6 11 1 30 -5 17 -5 32 0 35 5 3 6 15 0 29 -4 12 -4 29 0 36 5 8 5 21 0 31
-5 9 -7 18 -5 21 8 7 1274 1 1325 -6z m2709 0 c42 -7 109 -23 176 -44 50 -15
181 -83 212 -109 68 -59 110 -100 131 -130 26 -36 83 -149 87 -172 2 -9 4 -16
5 -16 1 0 3 -7 5 -15 2 -8 6 -28 10 -45 10 -41 11 -249 2 -308 -9 -57 -44
-156 -63 -178 -8 -8 -14 -19 -14 -22 0 -14 -92 -113 -141 -150 -13 -10 -59
-35 -101 -55 -42 -20 -79 -44 -80 -52 -6 -26 4 -60 17 -60 7 0 49 -18 94 -41
76 -38 185 -129 218 -184 70 -113 96 -208 96 -355 1 -117 -29 -287 -54 -314
-5 -6 -9 -16 -9 -24 0 -47 -140 -207 -236 -268 -60 -38 -211 -102 -258 -109
-17 -2 -42 -6 -56 -10 -66 -14 -206 -17 -855 -17 -385 1 -710 1 -722 1 l-23 1
0 220 c0 169 3 220 13 221 6 1 86 2 177 3 l165 1 0 893 c0 492 -3 896 -6 898
-3 2 -83 4 -178 4 l-171 2 0 217 c0 120 2 220 5 223 7 7 1504 1 1554 -6z"/>
<path d="M2141 5498 c1 -38 0 -71 -3 -74 -3 -3 -2 -21 2 -40 4 -19 5 -36 1
-38 -3 -2 -4 -93 -1 -201 3 -108 2 -199 -1 -201 -4 -2 -3 -20 1 -39 4 -19 5
-37 1 -39 -3 -2 -4 -66 -1 -141 3 -75 2 -139 -1 -140 -3 -2 -2 -29 1 -60 3
-31 3 -58 -1 -61 -4 -2 -3 -20 1 -39 4 -19 5 -37 1 -39 -3 -2 -4 -93 -1 -201
3 -108 2 -199 -1 -201 -4 -2 -3 -20 1 -39 4 -19 4 -37 0 -40 -4 -2 -4 -23 0
-45 5 -26 4 -40 -3 -40 -8 0 -8 -3 -1 -10 9 -9 48 -11 144 -10 8 0 33 0 55 -1
56 -1 194 8 230 16 17 3 48 11 70 17 22 5 42 9 44 8 2 -1 7 2 10 7 3 4 23 17
43 27 108 55 219 220 234 345 1 14 6 37 9 51 4 14 8 187 9 385 2 475 -8 543
-101 693 -55 88 -129 144 -240 181 -84 28 -119 32 -326 34 l-178 3 2 -68z"/>
<path d="M4615 5550 c-2 -8 -4 -154 -4 -323 1 -299 1 -309 20 -304 10 3 19 1
19 -4 0 -6 7 -6 19 0 10 6 21 8 23 5 6 -5 60 -6 98 -1 14 2 37 0 52 -4 14 -4
28 -5 30 -3 3 2 76 5 164 7 153 4 162 5 224 34 68 32 134 89 146 126 4 12 10
24 15 27 7 5 23 111 22 145 -2 71 -23 141 -53 179 -50 62 -139 114 -208 121
-20 2 -37 5 -37 6 0 1 -118 2 -263 3 -228 1 -263 0 -267 -14z"/>
<path d="M4611 4131 l-1 -331 43 -1 c23 -1 51 -1 62 -1 11 1 29 1 40 2 23 1
96 0 140 -1 17 -1 41 -1 55 -1 27 1 43 1 110 2 155 1 240 30 314 105 64 64 81
114 80 235 -1 96 -27 172 -79 222 -28 28 -122 79 -159 86 -12 2 -152 6 -312 9
l-292 4 -1 -330z"/>
</g>
</svg>
